<svg width="25" height="54" viewBox="0 0 25 54" fill="none" xmlns="http://www.w3.org/2000/svg">
<path d="M11.4632 31.2998L1.40988 40.916C0.792322 41.5067 0.792323 42.4933 1.40988 43.084L11.4632 52.7002C12.0431 53.2549 12.9569 53.2549 13.5368 52.7002L23.5901 43.084C24.2077 42.4933 24.2077 41.5067 23.5901 40.916L13.5368 31.2998C12.9569 30.7451 12.0431 30.7451 11.4632 31.2998Z" fill="#EDEDED" fill-opacity="0.65" stroke="white"/>
<path d="M11.4632 1.29985L1.40988 10.916C0.792322 11.5067 0.792323 12.4933 1.40988 13.084L11.4632 22.7002C12.0431 23.2549 12.9569 23.2549 13.5368 22.7002L23.5901 13.084C24.2077 12.4933 24.2077 11.5067 23.5901 10.916L13.5368 1.29985C12.9569 0.745132 12.0431 0.745134 11.4632 1.29985Z" fill="#EDEDED" fill-opacity="0.65" stroke="white"/>
</svg>
