<svg width="25" height="53" viewBox="0 0 25 53" fill="none" xmlns="http://www.w3.org/2000/svg">
<path d="M11.4632 30.2998L1.40988 39.916C0.792322 40.5067 0.792323 41.4933 1.40988 42.084L11.4632 51.7002C12.0431 52.2549 12.9569 52.2549 13.5368 51.7002L23.5901 42.084C24.2077 41.4933 24.2077 40.5067 23.5901 39.916L13.5368 30.2998C12.9569 29.7451 12.0431 29.7451 11.4632 30.2998Z" fill="#EDEDED" fill-opacity="0.65" stroke="white"/>
<path d="M5.78327 41.7311C5.3597 41.3357 5.3597 40.6643 5.78327 40.2689L11.8177 34.6368C12.2019 34.2782 12.7981 34.2782 13.1823 34.6368L19.2167 40.2689C19.6403 40.6643 19.6403 41.3357 19.2167 41.7311L13.1823 47.3632C12.7981 47.7218 12.2019 47.7218 11.8177 47.3632L5.78327 41.7311Z" fill="white" fill-opacity="0.72"/>
<path d="M11.4632 1.29985L1.40988 10.916C0.792322 11.5067 0.792323 12.4933 1.40988 13.084L11.4632 22.7002C12.0431 23.2549 12.9569 23.2549 13.5368 22.7002L23.5901 13.084C24.2077 12.4933 24.2077 11.5067 23.5901 10.916L13.5368 1.29985C12.9569 0.745132 12.0431 0.745134 11.4632 1.29985Z" fill="#EDEDED" fill-opacity="0.65" stroke="white"/>
</svg>
