<svg width="25" height="54" viewBox="0 0 25 54" fill="none" xmlns="http://www.w3.org/2000/svg">
<path d="M11.4632 1.29985L1.40988 10.916C0.792322 11.5067 0.792323 12.4933 1.40988 13.084L11.4632 22.7002C12.0431 23.2549 12.9569 23.2549 13.5368 22.7002L23.5901 13.084C24.2077 12.4933 24.2077 11.5067 23.5901 10.916L13.5368 1.29985C12.9569 0.745132 12.0431 0.745134 11.4632 1.29985Z" fill="#EDEDED" fill-opacity="0.65" stroke="white"/>
<path d="M5.78327 12.7311C5.3597 12.3357 5.3597 11.6643 5.78327 11.2689L11.8177 5.63683C12.2019 5.27824 12.7981 5.27824 13.1823 5.63683L19.2167 11.2689C19.6403 11.6643 19.6403 12.3357 19.2167 12.7311L13.1823 18.3632C12.7981 18.7218 12.2019 18.7218 11.8177 18.3632L5.78327 12.7311Z" fill="white" fill-opacity="0.72"/>
<path d="M11.4632 31.2998L1.40988 40.916C0.792322 41.5067 0.792323 42.4933 1.40988 43.084L11.4632 52.7002C12.0431 53.2549 12.9569 53.2549 13.5368 52.7002L23.5901 43.084C24.2077 42.4933 24.2077 41.5067 23.5901 40.916L13.5368 31.2998C12.9569 30.7451 12.0431 30.7451 11.4632 31.2998Z" fill="#EDEDED" fill-opacity="0.65" stroke="white"/>
<path d="M5.78327 42.7311C5.3597 42.3357 5.3597 41.6643 5.78327 41.2689L11.8177 35.6368C12.2019 35.2782 12.7981 35.2782 13.1823 35.6368L19.2167 41.2689C19.6403 41.6643 19.6403 42.3357 19.2167 42.7311L13.1823 48.3632C12.7981 48.7218 12.2019 48.7218 11.8177 48.3632L5.78327 42.7311Z" fill="white" fill-opacity="0.72"/>
</svg>
