<svg width="26" height="36" viewBox="0 0 26 36" fill="none" xmlns="http://www.w3.org/2000/svg">
<path d="M0 35.5469V0H10.0342C13.1266 0 15.861 0.683594 18.2373 2.05078C20.6136 3.41797 22.4447 5.36296 23.7305 7.88574C25.0326 10.4085 25.6917 13.3057 25.708 16.5771V18.8477C25.708 22.2005 25.057 25.1383 23.7549 27.6611C22.4691 30.1839 20.6217 32.1208 18.2129 33.4717C15.8203 34.8226 13.029 35.5143 9.83887 35.5469H0ZM4.6875 3.85742V31.7139H9.61914C13.2324 31.7139 16.04 30.5908 18.042 28.3447C20.0602 26.0986 21.0693 22.9004 21.0693 18.75V16.6748C21.0693 12.6383 20.1172 9.50521 18.2129 7.27539C16.3249 5.0293 13.6393 3.88997 10.1562 3.85742H4.6875Z" fill="white"/>
</svg>
