<svg width="60" height="58" viewBox="0 0 60 58" fill="none" xmlns="http://www.w3.org/2000/svg">
<path d="M7.63416 41.5973L7.02179 40.9849L6.79764 41.8214L4.37292 50.8706L4.35833 50.9251L4.29821 51.1494L4.13419 51.7616L3.12012 55.5461C2.92088 56.2897 3.6013 56.9701 4.34487 56.7709L8.12941 55.7568L8.74155 55.5928L8.96593 55.5327L9.02038 55.5181L10.789 55.0442L18.0696 53.0933L18.9061 52.8692L18.2937 52.2568L7.63416 41.5973Z" fill="black" stroke="white"/>
<rect x="8.29289" y="39.7175" width="40.1985" height="16.6353" transform="rotate(-45 8.29289 39.7175)" fill="black" stroke="white"/>
<path d="M49.1108 22.0937L49.4644 22.4472L49.8179 22.0937L56.6794 15.2322C57.6557 14.2559 57.6557 12.673 56.6794 11.6967L48.0434 3.06066C47.0671 2.08435 45.4842 2.08435 44.5079 3.06066L37.6464 9.92214L37.2928 10.2757L37.6464 10.6292L49.1108 22.0937Z" fill="black" stroke="white"/>
</svg>
