<svg width="57" height="57" viewBox="0 0 57 57" fill="none" xmlns="http://www.w3.org/2000/svg">
<path d="M28.5 55.5058C43.6878 55.5058 56 43.1937 56 28.0058C56 12.818 43.6878 0.505836 28.5 0.505836C13.3122 0.505836 1 12.818 1 28.0058C1 43.1937 13.3122 55.5058 28.5 55.5058ZM49 28.0058C49 39.3277 39.8218 48.5058 28.5 48.5058C28.3368 48.5058 28.174 48.5039 28.0117 48.5001C16.9156 48.2409 8 39.1645 8 28.0058C8 16.684 17.1782 7.50584 28.5 7.50584C39.8218 7.50584 49 16.684 49 28.0058Z" fill="black" stroke="white"/>
<path d="M25.5 22.5H25V23V44V44.5H25.5H31.5H32V44V23V22.5H31.5H25.5Z" fill="black" stroke="white"/>
<path d="M28.5 19.5C30.9853 19.5 33 17.4853 33 15C33 12.5147 30.9853 10.5 28.5 10.5C26.0147 10.5 24 12.5147 24 15C24 17.4853 26.0147 19.5 28.5 19.5Z" fill="black" stroke="white"/>
</svg>
