<svg width="20" height="27" viewBox="0 0 20 27" fill="none" xmlns="http://www.w3.org/2000/svg">
<path d="M20 2.5C20 3.88071 18.8807 5 17.5 5C16.1193 5 15 3.88071 15 2.5C15 1.11929 16.1193 0 17.5 0C18.8807 0 20 1.11929 20 2.5Z" fill="#6185AB"/>
<path d="M5 13.5C5 14.8807 3.88071 16 2.5 16C1.11929 16 0 14.8807 0 13.5C0 12.1193 1.11929 11 2.5 11C3.88071 11 5 12.1193 5 13.5Z" fill="#6185AB"/>
<path d="M20 24.5C20 25.8807 18.8807 27 17.5 27C16.1193 27 15 25.8807 15 24.5C15 23.1193 16.1193 22 17.5 22C18.8807 22 20 23.1193 20 24.5Z" fill="#6185AB"/>
<path fill-rule="evenodd" clip-rule="evenodd" d="M18 3L3 14L2.40864 13.1936L17.4086 2.1936L18 3Z" fill="#6185AB"/>
<path fill-rule="evenodd" clip-rule="evenodd" d="M16.956 25.0598L2 14L2.59457 13.196L17.5506 24.2557L16.956 25.0598Z" fill="#6185AB"/>
</svg>
