<svg width="45" height="42" viewBox="0 0 45 42" fill="none" xmlns="http://www.w3.org/2000/svg">
<path d="M22.2603 32.2817C22.1856 32.4253 21.9802 32.4253 21.9055 32.2817L13.1427 15.4391C13.1125 15.3809 13.1444 15.3101 13.2084 15.2956C13.7449 15.174 15.8844 14.6891 17.3231 14.363C17.7614 13.9877 18.4456 13.402 18.4456 13.402L19.5829 10.1227L20.5829 6.62274L21.9851 0.0790472C22.0077 -0.0263489 22.1581 -0.0263491 22.1807 0.079047L23.5829 6.62274L24.5829 10.1227L25.7202 13.402L26.7594 14.363L30.9558 15.2958C31.0199 15.31 31.0531 15.3813 31.0228 15.4396L22.2603 32.2817Z" fill="#FBFBFB"/>
<path d="M9.05929 29.1227C9.07481 29.1227 9.09012 29.1191 9.10401 29.1122L10.0829 28.6227L12.4434 26.2622C12.5327 26.1729 12.6539 26.1227 12.7802 26.1227C12.9649 26.1227 13.133 26.2296 13.2114 26.3969L20.3136 41.5481C20.3619 41.6513 20.2277 41.7421 20.1499 41.6588L13.5829 34.6227H13.1065C13.091 34.6227 13.0757 34.6264 13.0618 34.6333L12.0829 35.1227L10.2204 37.4508C10.1335 37.5595 10.0019 37.6227 9.86278 37.6227C9.69097 37.6227 9.53361 37.5266 9.45521 37.3737L0.0120415 18.9595C-0.042674 18.8528 0.102489 18.7578 0.178419 18.8506L8.58292 29.1227H9.05929Z" fill="#FBFBFB"/>
<path d="M35.6065 29.1227C35.591 29.1227 35.5757 29.1191 35.5618 29.1122L34.5829 28.6227L32.2224 26.2622C32.1331 26.1729 32.0119 26.1227 31.8856 26.1227C31.7009 26.1227 31.5328 26.2296 31.4544 26.3969L24.3522 41.5481C24.3039 41.6513 24.4381 41.7421 24.5159 41.6588L31.0829 34.6227H31.5593C31.5748 34.6227 31.5901 34.6264 31.604 34.6333L32.5829 35.1227L34.4454 37.4508C34.5323 37.5595 34.6639 37.6227 34.803 37.6227C34.9748 37.6227 35.1322 37.5266 35.2106 37.3737L44.6538 18.9595C44.7085 18.8528 44.5633 18.7578 44.4874 18.8506L36.0829 29.1227H35.6065Z" fill="#FBFBFB"/>
</svg>
