<svg width="54" height="25" viewBox="0 0 54 25" fill="none" xmlns="http://www.w3.org/2000/svg">
<path d="M22.7002 11.4632L13.084 1.40988C12.4933 0.792323 11.5067 0.792324 10.916 1.40988L1.29985 11.4632C0.745132 12.0431 0.745134 12.9569 1.29985 13.5368L10.916 23.5901C11.5067 24.2077 12.4933 24.2077 13.084 23.5901L22.7002 13.5368C23.2549 12.9569 23.2549 12.0431 22.7002 11.4632Z" fill="#EDEDED" fill-opacity="0.65" stroke="white"/>
<path d="M52.7002 11.4632L43.084 1.40988C42.4933 0.792323 41.5067 0.792324 40.916 1.40988L31.2998 11.4632C30.7451 12.0431 30.7451 12.9569 31.2998 13.5368L40.916 23.5901C41.5067 24.2077 42.4933 24.2077 43.084 23.5901L52.7002 13.5368C53.2549 12.9569 53.2549 12.0431 52.7002 11.4632Z" fill="#EDEDED" fill-opacity="0.65" stroke="white"/>
</svg>
