<svg width="54" height="25" viewBox="0 0 54 25" fill="none" xmlns="http://www.w3.org/2000/svg">
<path d="M22.7002 11.4632L13.084 1.40988C12.4933 0.792323 11.5067 0.792324 10.916 1.40988L1.29985 11.4632C0.745132 12.0431 0.745134 12.9569 1.29985 13.5368L10.916 23.5901C11.5067 24.2077 12.4933 24.2077 13.084 23.5901L22.7002 13.5368C23.2549 12.9569 23.2549 12.0431 22.7002 11.4632Z" fill="#EDEDED" fill-opacity="0.65" stroke="white"/>
<path d="M11.2689 5.78327C11.6643 5.3597 12.3357 5.3597 12.7311 5.78327L18.3632 11.8177C18.7218 12.2019 18.7218 12.7981 18.3632 13.1823L12.7311 19.2167C12.3357 19.6403 11.6643 19.6403 11.2689 19.2167L5.63683 13.1823C5.27824 12.7981 5.27824 12.2019 5.63683 11.8177L11.2689 5.78327Z" fill="white" fill-opacity="0.72"/>
<path d="M52.7002 11.4632L43.084 1.40988C42.4933 0.792323 41.5067 0.792324 40.916 1.40988L31.2998 11.4632C30.7451 12.0431 30.7451 12.9569 31.2998 13.5368L40.916 23.5901C41.5067 24.2077 42.4933 24.2077 43.084 23.5901L52.7002 13.5368C53.2549 12.9569 53.2549 12.0431 52.7002 11.4632Z" fill="#EDEDED" fill-opacity="0.65" stroke="white"/>
<path d="M41.2689 5.78327C41.6643 5.3597 42.3357 5.3597 42.7311 5.78327L48.3632 11.8177C48.7218 12.2019 48.7218 12.7981 48.3632 13.1823L42.7311 19.2167C42.3357 19.6403 41.6643 19.6403 41.2689 19.2167L35.6368 13.1823C35.2782 12.7981 35.2782 12.2019 35.6368 11.8177L41.2689 5.78327Z" fill="white" fill-opacity="0.72"/>
</svg>
