<svg width="46" height="42" viewBox="0 0 46 42" fill="none" xmlns="http://www.w3.org/2000/svg">
<path d="M2.93745 35C1.06688 31.6005 0 27.6776 0 23.5C0 10.5213 10.2975 0 23 0C35.7025 0 46 10.5213 46 23.5C46 27.6776 44.9331 31.6005 43.0626 35H40.7466C42.807 31.6743 44 27.7298 44 23.5C44 11.6259 34.598 2 23 2C11.402 2 2 11.6259 2 23.5C2 27.7298 3.19303 31.6743 5.25338 35H2.93745Z" fill="#FBFBFB"/>
<path fill-rule="evenodd" clip-rule="evenodd" d="M18 9.5C11.5 12.5 9.02713 16.8768 9.02713 25.2152C9.02713 28.8512 10.7926 32.1856 12.5 35H7.5C5.5 32 4.5 28.1888 4.5 24C4.5 14.426 10.6588 7.4321 19 5L18 9.5Z" fill="#FBFBFB"/>
<path fill-rule="evenodd" clip-rule="evenodd" d="M28 9.5C34.5 12.5 36.9729 16.8768 36.9729 25.2152C36.9729 28.8512 35.2074 32.1856 33.5 35H38.5C40.5 32 41.5 28.1888 41.5 24C41.5 14.426 35.3412 7.4321 27 5L28 9.5Z" fill="#FBFBFB"/>
<path d="M22.4849 5.03359C22.4949 5.01138 22.5088 4.99118 22.526 4.97397L22.8586 4.64142C22.9367 4.56332 23.0633 4.56332 23.1414 4.64142L23.474 4.97397C23.4912 4.99118 23.5051 5.01138 23.5151 5.03359L29.8105 19.0773C29.8995 19.2758 29.7543 19.5 29.5368 19.5H27.5828C27.5298 19.5 27.4789 19.5211 27.4414 19.5586L26.014 20.986C26.0047 20.9953 25.9963 21.0055 25.989 21.0165L25.0149 22.4777C25.005 22.4925 24.9972 22.5085 24.9915 22.5254L24.5 24L24.0076 31.3857C24.0029 31.4565 23.961 31.5195 23.8975 31.5512L23.2236 31.8882C23.0828 31.9586 22.9172 31.9586 22.7764 31.8882L22.1025 31.5512C22.039 31.5195 21.9971 31.4565 21.9924 31.3857L21.5 24L21.0085 22.5254C21.0028 22.5085 20.995 22.4925 20.9851 22.4777L20.011 21.0165C20.0037 21.0055 19.9953 20.9953 19.986 20.986L18.5586 19.5586C18.5211 19.5211 18.4702 19.5 18.4172 19.5H16.4632C16.2457 19.5 16.1005 19.2758 16.1895 19.0773L22.4849 5.03359Z" fill="#FBFBFB"/>
<path d="M3 36H43V42H3V36Z" fill="#FBFBFB"/>
</svg>
